<svg width="416" height="424" xmlns="http://www.w3.org/2000/svg" xmlns:xlink="http://www.w3.org/1999/xlink" xml:space="preserve" overflow="hidden"><g transform="translate(-383 -469)"><path d="M386.5 681C386.5 565.849 478.058 472.5 591 472.5 703.942 472.5 795.5 565.849 795.5 681 795.5 796.151 703.942 889.5 591 889.5 478.058 889.5 386.5 796.151 386.5 681Z" stroke="#042433" stroke-width="6.875" stroke-miterlimit="8" fill="#156082" fill-rule="evenodd"/><path d="M439.5 680C439.5 593.567 508.448 523.5 593.5 523.5 678.552 523.5 747.5 593.567 747.5 680 747.5 766.432 678.552 836.5 593.5 836.5 508.448 836.5 439.5 766.432 439.5 680Z" stroke="#4EA72E" stroke-width="6.875" stroke-miterlimit="8" fill="#FFFFFF" fill-rule="evenodd"/><path d="M468.5 769.5 591.5 519.5 714.5 769.5Z" stroke="#042433" stroke-width="6.875" stroke-miterlimit="8" fill="#156082" fill-rule="evenodd"/><path d="M449.09 612.468 731.221 609.475 581.146 817.238Z" stroke="#042433" stroke-width="6.875" stroke-miterlimit="8" fill="#156082" fill-rule="evenodd"/><path d="M518.5 659.662 571.594 659.662 588 616.5 604.406 659.662 657.5 659.662 614.546 686.337 630.953 729.5 588 702.824 545.047 729.5 561.454 686.337Z" stroke="#042433" stroke-width="6.875" stroke-miterlimit="8" fill="#FFFFFF" fill-rule="evenodd"/></g></svg>